<svg width="513" height="513" viewBox="0 0 513 513" fill="none" xmlns="http://www.w3.org/2000/svg">
<path d="M127.865 329.967C128.054 331.703 128.317 333.429 128.653 335.145C128.989 336.861 129.396 338.556 129.872 340.238C130.352 341.916 130.903 343.573 131.523 345.207C132.143 346.84 132.828 348.443 133.585 350.018C134.338 351.594 135.16 353.135 136.044 354.642C136.931 356.149 137.879 357.614 138.889 359.039C139.896 360.464 140.965 361.844 142.092 363.18C143.218 364.515 144.4 365.799 145.636 367.036C146.869 368.272 148.157 369.454 149.492 370.58C150.828 371.707 152.208 372.772 153.633 373.782C155.057 374.793 156.523 375.741 158.03 376.625C159.537 377.512 161.075 378.334 162.65 379.087C164.225 379.844 165.832 380.529 167.465 381.149C169.099 381.769 170.756 382.32 172.434 382.8C174.116 383.279 175.811 383.683 177.527 384.019C179.239 384.354 180.965 384.618 182.702 384.81C199.537 386.652 221.267 387.844 249.319 387.844C221.267 387.844 199.537 389.036 182.702 390.882C180.965 391.07 179.239 391.334 177.527 391.67C175.811 392.005 174.116 392.413 172.434 392.892C170.756 393.372 169.099 393.92 167.465 394.54C165.832 395.159 164.225 395.848 162.65 396.601C161.075 397.358 159.537 398.177 158.03 399.064C156.523 399.951 155.057 400.896 153.633 401.906C152.208 402.916 150.828 403.985 149.492 405.112C148.157 406.238 146.869 407.42 145.636 408.653C144.4 409.889 143.218 411.173 142.092 412.509C140.965 413.845 139.896 415.225 138.889 416.649C137.879 418.077 136.931 419.543 136.044 421.047C135.16 422.554 134.338 424.095 133.585 425.67C132.828 427.245 132.143 428.848 131.523 430.482C130.903 432.115 130.352 433.773 129.872 435.454C129.393 437.133 128.989 438.831 128.653 440.544C128.317 442.259 128.054 443.985 127.865 445.722C126.019 462.554 124.828 484.284 124.828 512.335C124.828 484.284 123.632 462.554 121.79 445.722C121.602 443.985 121.338 442.259 121.002 440.544C120.667 438.831 120.259 437.133 119.78 435.454C119.3 433.773 118.752 432.115 118.132 430.482C117.512 428.848 116.824 427.245 116.071 425.67C115.314 424.095 114.495 422.554 113.608 421.047C112.721 419.543 111.776 418.077 110.766 416.649C109.756 415.225 108.687 413.845 107.56 412.509C106.434 411.173 105.252 409.889 104.019 408.653C102.783 407.42 101.499 406.238 100.163 405.112C98.8273 403.985 97.4472 402.916 96.0191 401.906C94.5944 400.896 93.1286 399.951 91.6218 399.064C90.1183 398.177 88.5772 397.358 87.0019 396.601C85.4265 395.848 83.8203 395.159 82.1867 394.54C80.5531 393.92 78.899 393.372 77.2175 392.892C75.5394 392.413 73.8407 392.005 72.125 391.67C70.4126 391.334 68.6866 391.07 66.9502 390.882C50.1144 389.036 28.3847 387.844 0.336426 387.844C28.3847 387.844 50.1144 386.652 66.9502 384.81C68.6866 384.618 70.4126 384.354 72.125 384.019C73.8407 383.683 75.5394 383.276 77.2175 382.8C78.899 382.32 80.5531 381.769 82.1867 381.149C83.8203 380.529 85.4265 379.844 87.0019 379.087C88.5772 378.334 90.1183 377.512 91.6218 376.625C93.1286 375.741 94.5944 374.793 96.0191 373.782C97.4472 372.772 98.8273 371.707 100.163 370.58C101.499 369.454 102.783 368.272 104.019 367.036C105.252 365.799 106.434 364.515 107.56 363.18C108.687 361.844 109.756 360.464 110.766 359.039C111.776 357.614 112.721 356.149 113.608 354.642C114.495 353.135 115.314 351.594 116.071 350.018C116.824 348.443 117.512 346.84 118.132 345.207C118.752 343.573 119.3 341.916 119.78 340.238C120.259 338.556 120.667 336.861 121.002 335.145C121.338 333.429 121.602 331.703 121.79 329.967C123.632 313.134 124.828 291.405 124.828 263.353C124.828 291.405 126.019 313.134 127.865 329.967Z" fill="white"/>
<path d="M330.156 100.259C330.44 102.862 330.834 105.451 331.338 108.023C331.841 110.595 332.451 113.139 333.17 115.66C333.889 118.18 334.714 120.667 335.643 123.115C336.574 125.564 337.605 127.972 338.735 130.335C339.869 132.698 341.102 135.009 342.427 137.266C343.756 139.526 345.177 141.725 346.694 143.862C348.208 146.003 349.811 148.071 351.499 150.075C353.187 152.078 354.961 154.006 356.814 155.859C358.667 157.712 360.595 159.482 362.598 161.174C364.598 162.862 366.67 164.465 368.807 165.979C370.948 167.493 373.146 168.917 375.403 170.243C377.664 171.571 379.975 172.804 382.338 173.938C384.701 175.068 387.106 176.099 389.558 177.03C392.006 177.958 394.493 178.784 397.013 179.503C399.53 180.222 402.078 180.832 404.65 181.335C407.222 181.839 409.808 182.232 412.414 182.517C437.664 185.284 470.257 187.072 512.336 187.072C470.257 187.072 437.664 188.859 412.414 191.626C409.808 191.911 407.222 192.305 404.65 192.808C402.078 193.311 399.53 193.924 397.013 194.644C394.493 195.359 392.006 196.185 389.558 197.113C387.106 198.044 384.701 199.075 382.338 200.209C379.975 201.339 377.664 202.572 375.403 203.901C373.146 205.229 370.948 206.651 368.807 208.164C366.67 209.678 364.598 211.281 362.598 212.969C360.595 214.661 358.667 216.431 356.814 218.284C354.961 220.137 353.187 222.065 351.499 224.069C349.811 226.072 348.208 228.141 346.694 230.281C345.177 232.418 343.756 234.617 342.427 236.877C341.098 239.134 339.869 241.445 338.735 243.809C337.605 246.172 336.571 248.579 335.643 251.028C334.714 253.476 333.889 255.963 333.17 258.483C332.451 261.004 331.841 263.549 331.338 266.12C330.834 268.692 330.44 271.281 330.156 273.884C327.389 299.135 325.601 331.727 325.601 373.807C325.601 331.731 323.81 299.135 321.046 273.884C320.762 271.281 320.368 268.692 319.865 266.12C319.362 263.549 318.749 261.004 318.029 258.483C317.31 255.963 316.488 253.476 315.557 251.028C314.629 248.579 313.598 246.172 312.464 243.809C311.331 241.445 310.101 239.134 308.772 236.877C307.444 234.617 306.022 232.418 304.509 230.281C302.995 228.141 301.392 226.072 299.704 224.069C298.012 222.065 296.241 220.137 294.389 218.284C292.536 216.431 290.608 214.661 288.604 212.969C286.601 211.281 284.529 209.678 282.392 208.164C280.255 206.651 278.056 205.229 275.796 203.901C273.539 202.572 271.227 201.339 268.864 200.209C266.501 199.075 264.094 198.044 261.645 197.113C259.193 196.185 256.71 195.363 254.19 194.644C251.669 193.924 249.124 193.311 246.552 192.808C243.98 192.305 241.391 191.911 238.785 191.626C213.535 188.859 180.942 187.072 138.866 187.072C180.942 187.072 213.535 185.284 238.785 182.517C241.391 182.232 243.98 181.839 246.552 181.335C249.124 180.832 251.669 180.222 254.19 179.503C256.71 178.784 259.193 177.958 261.645 177.03C264.094 176.099 266.501 175.068 268.864 173.934C271.227 172.804 273.539 171.571 275.796 170.243C278.056 168.917 280.255 167.493 282.392 165.979C284.529 164.465 286.601 162.862 288.604 161.174C290.608 159.482 292.536 157.712 294.389 155.859C296.241 154.006 298.012 152.078 299.7 150.075C301.392 148.071 302.995 146.003 304.509 143.862C306.022 141.725 307.444 139.526 308.772 137.266C310.101 135.009 311.331 132.698 312.464 130.335C313.598 127.972 314.629 125.564 315.557 123.115C316.488 120.663 317.31 118.18 318.029 115.66C318.749 113.139 319.362 110.595 319.865 108.023C320.368 105.451 320.762 102.862 321.046 100.259C323.81 75.0086 325.601 42.4157 325.601 0.336426C325.601 42.4123 327.389 75.0086 330.156 100.259Z" fill="white"/>
</svg>
